HIERARCHY
ROOT hip
{
	OFFSET 0.000000 0.000000 0.000000 
	CHANNELS 6 Xposition Yposition Zposition Xrotation Zrotation Yrotation
	JOINT abdomen
	{
		OFFSET 0.000000 3.402643 0.000000 
		CHANNELS 3 Xrotation Zrotation Yrotation
		JOINT chest
		{
			OFFSET 0.000000 8.438565 -0.680529 
			CHANNELS 3 Xrotation Zrotation Yrotation
			JOINT neck
			{
				OFFSET 0.000000 10.207942 -0.272212 
				CHANNELS 3 Xrotation Zrotation Yrotation
				JOINT head
				{
					OFFSET 0.000000 3.130431 0.000000 
					CHANNELS 3 Xrotation Zrotation Yrotation
					End Site
					{
						OFFSET 0.000000 3.130435 0.000000 
					}
				}
			}
			JOINT lCollar
			{
				OFFSET 3.470700 6.669187 -0.816635 
				CHANNELS 3 Yrotation Zrotation Xrotation
				JOINT lShldr
				{
					OFFSET 3.198488 0.000000 0.000000 
					CHANNELS 3 Zrotation Yrotation Xrotation
					JOINT lForeArm
					{
						OFFSET 10.139888 0.000000 0.000000 
						CHANNELS 3 Yrotation Zrotation Xrotation
						JOINT lHand
						{
							OFFSET 8.370511 0.000000 0.000000 
							CHANNELS 3 Zrotation Yrotation Xrotation
							End Site
							{
								OFFSET 4.083176 0.000000 0.000000 
							}
						}
					}
				}
			}
			JOINT rCollar
			{
				OFFSET -3.470700 6.669187 -0.816635 
				CHANNELS 3 Yrotation Zrotation Xrotation
				JOINT rShldr
				{
					OFFSET -3.198488 0.000000 0.000000 
					CHANNELS 3 Zrotation Yrotation Xrotation
					JOINT rForeArm
					{
						OFFSET -10.139888 0.000000 0.000000 
						CHANNELS 3 Yrotation Zrotation Xrotation
						JOINT rHand
						{
							OFFSET -8.370511 0.000000 0.000000 
							CHANNELS 3 Zrotation Yrotation Xrotation
							End Site
							{
								OFFSET -4.083176 0.000000 0.000000 
							}
						}
					}
				}
			}
		}
	}
	JOINT lThigh
	{
		OFFSET 5.308129 -1.633274 1.361059 
		CHANNELS 3 Xrotation Zrotation Yrotation
		JOINT lShin
		{
			OFFSET -2.041588 -20.007561 0.000000 
			CHANNELS 3 Xrotation Zrotation Yrotation
			JOINT lFoot
			{
				OFFSET 0.000000 -19.190928 -1.224953 
				CHANNELS 3 Xrotation Yrotation Zrotation
				End Site
				{
					OFFSET 0.000000 -2.449906 4.627600 
				}
			}
		}
	}
	JOINT rThigh
	{
		OFFSET -5.308129 -1.633274 1.361059 
		CHANNELS 3 Xrotation Zrotation Yrotation
		JOINT rShin
		{
			OFFSET 2.041588 -20.007561 0.000000 
			CHANNELS 3 Xrotation Zrotation Yrotation
			JOINT rFoot
			{
				OFFSET 0.000000 -19.190928 -1.224953 
				CHANNELS 3 Xrotation Yrotation Zrotation
				End Site
				{
					OFFSET 0.000000 -2.449906 4.627600 
				}
			}
		}
	}
}
MOTION
Frames: 13
Frame Time: 0.016667
0.011331 50.698708 0.033992 -12.560863 -0.214832 0.605464 5.019107 -0.166015 0.146484 17.389357 1.689300 -0.771725 38.898930 -4.658005 -3.753241 -32.733566 6.008623 4.292135 -0.502162 -14.745017 -0.130224 -58.792198 15.747643 -6.941964 -22.259808 -1.834029 -13.078157 1.644208 -3.403038 -3.510995 15.914680 14.382711 -4.044494 66.877892 -19.031420 -5.143230 32.947250 1.765056 -15.106587 -1.662539 3.382353 -3.511080 15.414290 17.572124 0.985592 -1.219386 -2.038333 8.847926 2.951857 1.914313 -3.912807 19.779934 -3.153518 -0.097718 -3.618606 5.672794 -26.635664 -7.790051 2.817287 -7.135741 
0.022661 50.715694 0.067982 -12.442765 -0.156244 0.498045 5.019107 -0.166015 0.146484 17.261549 1.591737 -0.498126 38.681873 -4.735803 -3.783250 -32.508553 6.117714 4.037610 -0.722556 -14.714536 -0.189370 -59.063862 15.754444 -7.118154 -22.259808 -1.834029 -13.078157 1.644208 -3.403038 -3.510995 15.762736 14.219746 -3.957403 67.006462 -18.846460 -5.012716 32.734337 1.774480 -15.004702 -1.662539 3.382353 -3.511080 15.506788 17.450045 0.976792 -1.413839 -2.028666 9.044382 2.932378 1.912881 -3.913219 19.703735 -3.251653 -0.094818 -3.562858 5.633840 -26.492352 -7.750976 2.816647 -7.136078 
0.050987 50.721371 0.118970 -12.441523 -0.019531 0.341797 5.019107 -0.166015 0.146484 17.249052 1.425765 -0.273353 38.480198 -4.774726 -3.792987 -32.276897 6.099659 3.840293 -0.908427 -14.674288 -0.232101 -59.347855 15.718841 -7.286304 -22.162985 -1.844030 -13.169571 1.644208 -3.403038 -3.510995 15.733389 14.021308 -3.895536 67.190849 -18.709400 -4.900421 32.567799 1.770738 -14.894276 -1.662539 3.382353 -3.511080 15.746514 17.191975 0.954403 -1.670647 -1.933119 9.251829 2.991719 1.906771 -3.905210 19.756941 -3.465579 -0.124174 -3.531849 5.662467 -26.364052 -7.760417 2.828992 -7.141075 
0.079312 50.727032 0.169954 -12.450824 0.107421 0.185565 5.019107 -0.166015 0.146484 17.235468 1.259765 -0.039053 38.288128 -4.823448 -3.792991 -32.045528 6.091337 3.634304 -1.106603 -14.643326 -0.281791 -59.633091 15.673595 -7.459022 -22.054277 -1.850712 -13.252907 1.644208 -3.403038 -3.510995 15.703824 13.813082 -3.833711 67.373665 -18.578588 -4.774724 32.401630 1.761085 -14.791558 -1.662539 3.382353 -3.511080 15.994654 16.931976 0.938644 -1.919848 -1.842908 9.448408 3.049008 1.928611 -3.918534 19.817904 -3.680762 -0.153296 -3.501025 5.690948 -26.225973 -7.769974 2.804510 -7.152289 
0.101974 50.727032 0.215278 -12.401777 0.195312 0.166048 5.019107 -0.166015 0.146484 17.178528 1.162109 0.039252 38.094761 -4.852680 -3.792992 -31.867935 6.092430 3.467157 -1.272936 -14.622185 -0.322031 -59.864853 15.575879 -7.707841 -21.890213 -1.856544 -13.377866 1.644208 -3.403038 -3.510995 15.770871 13.620494 -3.797852 67.606903 -18.504110 -4.731757 32.341824 1.752816 -14.706411 -1.662539 3.382353 -3.511080 16.040344 16.791521 0.933432 -1.986760 -1.822700 9.480814 3.057863 1.929971 -3.907786 19.829481 -3.827165 -0.158130 -3.488139 5.748858 -26.276075 -7.829819 2.788007 -7.127657 
0.124634 50.727032 0.260599 -12.362533 0.292968 0.146532 5.019107 -0.166015 0.146484 17.121317 1.064451 0.117349 37.902042 -4.891657 -3.793825 -31.680578 6.093472 3.300009 -1.439174 -14.591062 -0.362265 -60.095631 15.471796 -7.944909 -21.726273 -1.863050 -13.502960 1.644208 -3.403038 -3.510995 15.838161 13.427976 -3.764374 67.841339 -18.421194 -4.694890 32.272831 1.746794 -14.622673 -1.662539 3.382353 -3.511080 16.089508 16.646454 0.906352 -2.057651 -1.794395 9.532584 3.069806 1.906736 -3.895169 19.830708 -3.964617 -0.141388 -3.484263 5.809330 -26.375179 -7.878661 2.791070 -7.126240 
0.141631 50.721355 0.294590 -12.312535 0.351557 0.312554 5.019107 -0.166015 0.146484 17.071571 1.054687 0.068528 37.718330 -4.988759 -3.853053 -31.521391 6.211761 3.085369 -1.669174 -14.578278 -0.421374 -60.293140 15.259974 -8.384511 -21.490887 -1.880108 -13.681037 1.644208 -3.403038 -3.510995 15.833456 13.171925 -3.693120 68.155899 -18.269836 -4.709242 32.215679 1.747611 -14.537307 -1.662539 3.382353 -3.511080 15.931426 16.605591 0.905945 -1.850026 -1.821820 9.395079 2.970436 1.916717 -3.901703 19.884399 -4.050833 -0.170391 -3.537999 5.886110 -26.568748 -7.956790 2.787544 -7.127753 
0.158626 50.715694 0.328580 -12.271812 0.419907 0.488340 5.019107 -0.166015 0.146484 17.021841 1.044922 0.019706 37.525723 -5.095585 -3.912286 -31.362602 6.339764 2.869695 -1.889378 -14.565123 -0.482925 -60.480213 15.047477 -8.817680 -21.255806 -1.898543 -13.859377 1.644208 -3.403038 -3.510995 15.838515 12.905536 -3.619571 68.481705 -18.112413 -4.734668 32.158596 1.748259 -14.452132 -1.662539 3.382353 -3.511080 15.790663 16.561401 0.894100 -1.655280 -1.851523 9.258179 2.881808 1.915612 -3.901783 19.937487 -4.129992 -0.167340 -3.602112 5.976966 -26.802160 -8.053690 2.809073 -7.139242 
0.175621 50.715694 0.356906 -12.179901 0.537056 0.810603 5.019107 -0.166015 0.146484 16.959600 1.015620 -0.185518 37.358273 -5.241172 -4.001588 -31.204115 6.594333 2.693953 -2.128982 -14.541584 -0.544448 -60.611229 14.760351 -9.437037 -20.975849 -1.909137 -14.097103 1.644208 -3.403038 -3.510995 15.908622 12.659540 -3.567820 68.782417 -17.931843 -4.657737 32.020138 1.744910 -14.318392 -1.662539 3.382353 -3.511080 15.283094 16.493666 0.901051 -1.035238 -1.854933 8.901697 2.736326 1.900066 -3.906664 19.994648 -4.237536 -0.171494 -3.742308 6.080273 -27.219553 -8.112311 2.811100 -7.138245 
0.192617 50.715694 0.385231 -12.086480 0.663933 1.132963 5.019107 -0.166015 0.146484 16.897638 0.976540 -0.390568 37.182217 -5.396457 -4.090923 -31.036690 6.839105 2.527946 -2.368530 -14.517577 -0.603495 -60.733761 14.464993 -10.059818 -20.686949 -1.924342 -14.336485 1.644208 -3.403038 -3.510995 15.969512 12.414252 -3.514161 69.072586 -17.753254 -4.576164 31.872551 1.743253 -14.185951 -1.662539 3.382353 -3.511080 14.770210 16.410782 0.886793 -0.410648 -1.854338 8.554477 2.578578 1.902985 -3.915478 20.054016 -4.335196 -0.183070 -3.884325 6.180420 -27.616913 -8.180748 2.822108 -7.133115 
0.215278 50.710030 0.402228 -11.900661 0.849293 1.562762 5.019107 -0.166015 0.146484 16.737911 0.849549 -0.683663 36.986450 -5.416070 -4.071481 -30.851824 6.976794 2.312320 -2.614686 -14.444604 -0.653075 -60.834999 14.079608 -10.894004 -20.343800 -1.939494 -14.627407 1.644208 -3.403038 -3.510995 16.050905 12.177671 -3.460304 69.392288 -17.518745 -4.404466 31.580008 1.737141 -13.987840 -1.662539 3.382353 -3.511080 13.861927 16.282417 0.893687 0.721643 -1.866599 8.062114 2.270465 1.904172 -3.903413 20.022331 -4.481343 -0.199965 -4.078430 6.287445 -28.088451 -8.238514 2.824653 -7.153246 
0.237940 50.704361 0.419222 -11.721484 1.044290 1.992568 5.019107 -0.166015 0.146484 16.589369 0.722553 -0.966843 36.790672 -5.435684 -4.052039 -30.658594 7.104666 2.096712 -2.863330 -14.380503 -0.714504 -60.928513 13.700432 -11.735374 -20.001013 -1.961304 -14.909746 1.644208 -3.403038 -3.510995 16.125040 11.939090 -3.417924 69.701859 -17.290493 -4.239711 31.297443 1.721527 -13.795088 -1.662539 3.382353 -3.511080 12.953044 16.144854 0.891305 1.860609 -1.858527 7.559427 1.941171 1.912439 -3.909516 20.001247 -4.617366 -0.203973 -4.249851 6.373651 -28.576925 -8.308063 2.805511 -7.129909 
0.266266 50.698700 0.430553 -11.458077 1.278088 2.490921 5.019107 -0.166015 0.146484 16.364780 0.536971 -1.298863 36.671974 -5.367943 -3.983058 -30.603510 7.144550 1.900490 -3.121454 -14.306012 -0.773468 -60.959412 13.243837 -12.497854 -19.592430 -1.992737 -15.292032 1.644208 -3.403038 -3.510995 16.251835 11.724319 -3.384000 69.992172 -17.037704 -4.045762 30.880608 1.715973 -13.568127 -1.662539 3.382353 -3.511080 11.694928 15.970845 0.879538 3.502847 -2.038612 7.319511 1.357837 1.907481 -3.909387 19.938650 -4.794789 -0.198786 -4.466427 6.442794 -29.146727 -8.357389 2.806600 -7.118606 
